<svg xmlns="http://www.w3.org/2000/svg" width="12.116" height="13.846" viewBox="0 0 12.116 13.846">
  <path id="Icon_awesome-copy" data-name="Icon awesome-copy" d="M8.654,12.116V13.2A.649.649,0,0,1,8,13.846H.649A.649.649,0,0,1,0,13.2V3.245A.649.649,0,0,1,.649,2.6H2.6v8a1.516,1.516,0,0,0,1.514,1.514Zm0-9.3V0H4.111a.649.649,0,0,0-.649.649V10.6a.649.649,0,0,0,.649.649h7.356a.649.649,0,0,0,.649-.649V3.462H9.3A.651.651,0,0,1,8.654,2.813Zm3.272-.839L10.142.19A.649.649,0,0,0,9.683,0H9.519V2.6h2.6V2.432a.649.649,0,0,0-.19-.459Z" fill="#121a3d"/>
</svg>
