<svg xmlns="http://www.w3.org/2000/svg" width="21.289" height="21.289" viewBox="0 0 21.289 21.289">
  <g id="Icon_feather-sun" data-name="Icon feather-sun" transform="translate(1.5 1.5)">
    <path id="Tracé_78" data-name="Tracé 78" d="M18.813,14.657A4.157,4.157,0,1,1,14.657,10.5a4.157,4.157,0,0,1,4.157,4.157Z" transform="translate(-5.512 -5.512)" fill="none" stroke="#121a3d" stroke-linecap="round" stroke-linejoin="round" stroke-width="3"/>
    <path id="Tracé_79" data-name="Tracé 79" d="M18,1.5V3.163" transform="translate(-8.855 -1.5)" fill="none" stroke="#121a3d" stroke-linecap="round" stroke-linejoin="round" stroke-width="3"/>
    <path id="Tracé_80" data-name="Tracé 80" d="M18,31.5v1.663" transform="translate(-8.855 -14.874)" fill="none" stroke="#121a3d" stroke-linecap="round" stroke-linejoin="round" stroke-width="3"/>
    <path id="Tracé_81" data-name="Tracé 81" d="M6.33,6.33,7.51,7.51" transform="translate(-3.653 -3.653)" fill="none" stroke="#121a3d" stroke-linecap="round" stroke-linejoin="round" stroke-width="3"/>
    <path id="Tracé_82" data-name="Tracé 82" d="M27.54,27.54l1.18,1.18" transform="translate(-13.108 -13.108)" fill="none" stroke="#121a3d" stroke-linecap="round" stroke-linejoin="round" stroke-width="3"/>
    <path id="Tracé_83" data-name="Tracé 83" d="M1.5,18H3.163" transform="translate(-1.5 -8.855)" fill="none" stroke="#121a3d" stroke-linecap="round" stroke-linejoin="round" stroke-width="3"/>
    <path id="Tracé_84" data-name="Tracé 84" d="M31.5,18h1.663" transform="translate(-14.874 -8.855)" fill="none" stroke="#121a3d" stroke-linecap="round" stroke-linejoin="round" stroke-width="3"/>
    <path id="Tracé_85" data-name="Tracé 85" d="M6.33,28.72l1.18-1.18" transform="translate(-3.653 -13.108)" fill="none" stroke="#121a3d" stroke-linecap="round" stroke-linejoin="round" stroke-width="3"/>
    <path id="Tracé_86" data-name="Tracé 86" d="M27.54,7.51l1.18-1.18" transform="translate(-13.108 -3.653)" fill="none" stroke="#121a3d" stroke-linecap="round" stroke-linejoin="round" stroke-width="3"/>
  </g>
</svg>
