<svg xmlns="http://www.w3.org/2000/svg" width="40.5" height="36" viewBox="0 0 40.5 36">
  <path id="Icon_awesome-cloud-sun-rain" data-name="Icon awesome-cloud-sun-rain" d="M35.895,15.855a5.623,5.623,0,0,0-5.52-4.605,5.553,5.553,0,0,0-2.412.563A6.737,6.737,0,0,0,15.75,15.75c0,.035.014.077.014.113A5.624,5.624,0,0,0,16.875,27h18a5.618,5.618,0,0,0,1.02-11.145ZM8.726,18.274A6.733,6.733,0,0,1,17.634,8.205,8.938,8.938,0,0,1,22.5,6.75c.049,0,.091.014.141.014l.626-1.877a.913.913,0,0,0-1.16-1.153L16.812,5.5,14.316.506a.916.916,0,0,0-1.638,0L10.181,5.5,4.887,3.734a.913.913,0,0,0-1.153,1.16L5.5,10.188l-4.992,2.5a.916.916,0,0,0,0,1.638l4.992,2.5L3.734,22.113a.919.919,0,0,0,1.16,1.16l4.163-1.385c-.014-.169-.049-.33-.049-.506a7.771,7.771,0,0,1,.436-2.524,6.484,6.484,0,0,1-.717-.584ZM13.634,14.2a8.966,8.966,0,0,1,2.243-4.5A4.439,4.439,0,0,0,13.5,9,4.5,4.5,0,0,0,9,13.5a4.458,4.458,0,0,0,1.484,3.312A7.885,7.885,0,0,1,13.634,14.2ZM36.879,29.4a1.122,1.122,0,0,0-1.533.422l-2.573,4.5a1.121,1.121,0,0,0,.422,1.533,1.122,1.122,0,0,0,1.533-.422l2.573-4.5a1.127,1.127,0,0,0-.422-1.533Zm-6.75,0a1.122,1.122,0,0,0-1.533.422l-2.573,4.5a1.121,1.121,0,0,0,.422,1.533,1.122,1.122,0,0,0,1.533-.422l2.573-4.5a1.127,1.127,0,0,0-.422-1.533Zm-6.75,0a1.122,1.122,0,0,0-1.533.422l-2.573,4.5a1.121,1.121,0,0,0,.422,1.533,1.122,1.122,0,0,0,1.533-.422l2.573-4.5a1.127,1.127,0,0,0-.422-1.533Zm-6.75,0a1.122,1.122,0,0,0-1.533.422l-2.573,4.5a1.121,1.121,0,0,0,.422,1.533,1.122,1.122,0,0,0,1.533-.422l2.573-4.5a1.127,1.127,0,0,0-.422-1.533Z"/>
</svg>
