<svg xmlns="http://www.w3.org/2000/svg" width="20.412" height="20.412" viewBox="0 0 20.412 20.412">
  <g id="Icon_ionic-ios-close-circle-outline" data-name="Icon ionic-ios-close-circle-outline" transform="translate(-3.375 -3.375)">
    <path id="Tracé_67" data-name="Tracé 67" d="M20.068,18.947l-2.612-2.612,2.612-2.612a.792.792,0,0,0-1.12-1.12l-2.612,2.612L13.724,12.6a.792.792,0,1,0-1.12,1.12l2.612,2.612L12.6,18.947a.766.766,0,0,0,0,1.12.787.787,0,0,0,1.12,0l2.612-2.612,2.612,2.612a.8.8,0,0,0,1.12,0A.787.787,0,0,0,20.068,18.947Z" transform="translate(-2.755 -2.754)" fill="#2d70d0"/>
    <path id="Tracé_68" data-name="Tracé 68" d="M13.581,4.749A8.828,8.828,0,1,1,7.335,7.335a8.774,8.774,0,0,1,6.246-2.586m0-1.374A10.206,10.206,0,1,0,23.787,13.581,10.2,10.2,0,0,0,13.581,3.375Z" fill="#2d70d0"/>
  </g>
</svg>
