<svg id="Page-1" xmlns="http://www.w3.org/2000/svg" width="21.61" height="13.245" viewBox="0 0 21.61 13.245">
  <g id="walletconnect-logo-alt" transform="translate(0 0)">
    <path id="WalletConnect" d="M4.429,2.637a9.161,9.161,0,0,1,12.762,0l.424.415a.435.435,0,0,1,0,.625L16.165,5.1a.229.229,0,0,1-.319,0l-.584-.571a6.391,6.391,0,0,0-8.9,0l-.625.612a.229.229,0,0,1-.319,0L3.964,3.717a.435.435,0,0,1,0-.625ZM20.192,5.574l1.291,1.264a.435.435,0,0,1,0,.625l-5.823,5.7a.458.458,0,0,1-.638,0h0L10.89,9.118a.115.115,0,0,0-.16,0h0L6.6,13.164a.458.458,0,0,1-.638,0h0L.138,7.463a.435.435,0,0,1,0-.625L1.429,5.574a.458.458,0,0,1,.638,0L6.2,9.621a.115.115,0,0,0,.16,0h0l4.132-4.046a.458.458,0,0,1,.638,0h0l4.133,4.046a.115.115,0,0,0,.16,0l4.132-4.046A.458.458,0,0,1,20.192,5.574Z" transform="translate(-0.005 -0.049)" fill="#3b99fc"/>
  </g>
</svg>
